HIERARCHY
ROOT Hips
{
	OFFSET	0.000000	0.000000	0.000000
	CHANNELS 6 Xposition Yposition Zposition Zrotation Xrotation Yrotation
	JOINT LeftHip
	{
		OFFSET	4.740440	-3.195970	-0.322709
		CHANNELS 3 Zrotation Xrotation Yrotation
		JOINT LeftKnee
		{
			OFFSET	-1.605680	-15.592300	1.005510
			CHANNELS 3 Zrotation Xrotation Yrotation
			JOINT LeftAnkle
			{
				OFFSET	-0.632401	-16.421000	-1.413730
				CHANNELS 3 Zrotation Xrotation Yrotation
				End Site
				{
					OFFSET	0.008423	-2.933000	-1.776750
				}
			}
		}
	}
	JOINT RightHip
	{
		OFFSET	-4.740440	-3.195970	-0.322709
		CHANNELS 3 Zrotation Xrotation Yrotation
		JOINT RightKnee
		{
			OFFSET	1.605680	-15.592300	1.005510
			CHANNELS 3 Zrotation Xrotation Yrotation
			JOINT RightAnkle
			{
				OFFSET	0.632401	-16.421000	-1.413730
				CHANNELS 3 Zrotation Xrotation Yrotation
				End Site
				{
					OFFSET	-0.008423	-2.933000	-1.776750
				}
			}
		}
	}
	JOINT Chest
	{
		OFFSET	0.000000	3.468200	0.078401
		CHANNELS 3 Zrotation Xrotation Yrotation
		JOINT LeftCollar
		{
			OFFSET	3.857650	15.070700	-0.011583
			CHANNELS 3 Zrotation Xrotation Yrotation
			JOINT LeftShoulder
			{
				OFFSET	3.979720	-1.940530	-0.165223
				CHANNELS 3 Zrotation Xrotation Yrotation
				JOINT LeftElbow
				{
					OFFSET	0.615844	-10.986600	-0.673886
					CHANNELS 3 Zrotation Xrotation Yrotation
					JOINT LeftWrist
					{
						OFFSET	0.826843	-10.854500	1.034220
						CHANNELS 3 Zrotation Xrotation Yrotation
						End Site
						{
							OFFSET	-1.679080	-8.456540	0.936217
						}
					}
				}
			}
		}
		JOINT RightCollar
		{
			OFFSET	-3.857650	15.070700	-0.011583
			CHANNELS 3 Zrotation Xrotation Yrotation
			JOINT RightShoulder
			{
				OFFSET	-3.979720	-1.940530	-0.165223
				CHANNELS 3 Zrotation Xrotation Yrotation
				JOINT RightElbow
				{
					OFFSET	-0.615845	-10.986600	-0.673886
					CHANNELS 3 Zrotation Xrotation Yrotation
					JOINT RightWrist
					{
						OFFSET	-0.826843	-10.854500	1.034220
						CHANNELS 3 Zrotation Xrotation Yrotation
						End Site
						{
							OFFSET	1.679080	-8.456540	0.936217
						}
					}
				}
			}
		}
		JOINT Neck
		{
			OFFSET	0.000000	15.101400	0.055730
			CHANNELS 3 Zrotation Xrotation Yrotation
			JOINT Head
			{
				OFFSET	0.000000	4.185120	1.488260
				CHANNELS 3 Zrotation Xrotation Yrotation
				End Site
				{
					OFFSET	0.000000	7.773420	-0.106016
				}
			}
		}
	}
}
MOTION
Frames:     17
Frame Time: 0.016667
0.069483	40.621353	5.089031	11.361195	24.067144	36.552273	7.935334	18.097137	-1.893865	5.153809	-0.618387	15.105684	-15.506546	10.300578	1.050575	-32.646332	-24.566418	-15.238944	10.516895	22.746466	-19.791512	-0.660084	18.439936	-4.110436	3.335728	16.310980	-20.502342	1.425428	1.948749	8.730305	6.211034	12.244436	10.366373	5.728008	-26.640955	1.979340	9.318872	5.639735	-1.758057	-10.156639	-0.745309	1.014244	-2.607712	15.377855	-5.338138	1.371767	-13.641073	16.011675	-14.558524	-4.297197	8.605371	-0.202226	-4.912971	0.024559	-1.866432	-2.476613	-19.262543	
-0.216343	40.411877	4.626310	11.345613	23.398956	37.049477	10.381362	19.423643	-3.258562	4.224465	1.820823	15.018393	-13.289781	8.247162	1.785891	-32.751987	-26.092199	-15.442484	10.309761	25.392076	-20.740648	0.286566	18.197401	-3.801996	3.774419	17.047487	-20.054789	1.827885	2.164194	8.259478	6.559124	12.129799	10.348477	5.492233	-26.771784	1.290761	8.375598	5.540858	-2.432869	-9.851794	-0.553058	0.754861	-3.824542	14.195564	-3.827629	1.470308	-12.222531	15.132697	-15.066276	-4.104401	8.922172	-0.971984	-6.957205	-1.104892	-1.871671	-1.832812	-18.735041	
-0.987007	40.224163	2.801392	10.878789	23.432758	37.484653	12.469905	19.695820	-5.166842	3.244005	4.622044	15.412681	-10.553254	6.501682	2.563308	-33.276424	-26.932325	-15.140471	9.532695	22.206932	-20.343901	3.358703	16.192078	-1.890619	3.805744	17.036873	-19.391001	1.980725	2.556963	8.712651	8.175863	12.309536	11.451575	4.914101	-28.040924	-0.961507	5.998015	5.232335	-5.677767	-8.906471	-0.647581	2.060046	-5.304076	13.322435	-4.546513	0.432667	-10.692030	15.681735	-15.326359	-3.540098	10.407380	-2.473149	-9.563670	-1.818842	-3.697367	-3.980476	-17.766315	
-1.690253	40.201962	1.083376	10.638482	23.742867	37.497219	14.250587	20.003897	-7.119815	1.706456	5.626438	16.481892	-7.564291	6.626252	3.255157	-32.879105	-27.327398	-13.595241	7.632137	16.338451	-18.465816	4.963126	18.210123	-3.109096	3.510658	17.019663	-18.589462	2.101998	2.357778	8.416236	8.733283	12.406104	11.979708	4.895755	-28.524794	-1.345172	5.731571	5.215371	-6.769105	-8.457341	-0.901564	2.019928	-7.001057	12.241578	-4.296674	1.101335	-9.467046	15.415547	-15.164638	-3.127474	10.867245	-3.321360	-10.484151	-2.041065	-3.571896	-4.903532	-18.185089	
-2.422913	39.685188	-0.453996	10.310321	25.905962	37.171791	15.068801	19.314949	-8.185625	0.138754	9.985685	16.453426	-7.285408	3.205898	4.323183	-34.348690	-29.070751	-12.306691	5.957824	11.712883	-17.606588	9.795677	15.016360	-2.061954	2.184950	15.367185	-17.328009	1.884130	2.216598	8.744579	9.911242	12.148274	12.949217	5.828433	-28.967495	-0.971836	6.225962	5.524060	-7.991507	-8.905740	-1.488009	2.722798	-7.901388	11.413192	-4.897132	-0.105875	-9.055634	15.562056	-14.489651	-1.104315	12.226840	-6.286853	-13.237129	-2.024862	-2.310921	-6.743006	-18.827875	
-2.613616	39.570194	-0.997109	10.163677	26.930000	37.039875	16.817829	19.856554	-9.436830	-1.866146	10.230354	16.953526	-6.457616	3.663598	4.578421	-35.424957	-30.315659	-11.030826	6.416853	10.084472	-19.149185	7.573765	15.872011	-2.173573	1.504648	14.417067	-16.729282	1.932030	2.075021	8.824367	10.322961	11.880729	12.998919	6.353328	-28.601753	-0.519033	6.540919	5.746949	-7.588614	-9.243979	-1.811841	2.825156	-9.286807	10.057665	-4.346956	0.481450	-7.740020	15.204637	-14.114121	-0.337154	12.803609	-7.065958	-14.064484	-1.997859	-1.539793	-6.498050	-18.693327	
-2.685405	38.960583	-0.790245	10.353873	27.691454	36.377972	17.886101	20.837526	-9.817370	-2.605127	14.642105	15.205888	-6.565001	0.948703	5.444386	-35.567467	-31.824266	-10.120660	7.917888	12.112447	-19.660542	-0.065685	8.027702	-1.311205	-0.180448	12.715907	-14.806834	1.639354	1.443711	8.857315	12.987065	11.235591	13.516474	8.103897	-27.225588	2.577696	7.135276	7.276577	-7.472178	-9.751376	-3.045943	3.542146	-10.298637	10.653365	-4.533831	-0.712694	-8.268533	15.625036	-12.467277	1.665904	15.150459	-7.864380	-15.289066	-0.335680	-1.620305	-4.918939	-19.620514	
-2.685737	38.666988	-1.151397	11.353117	26.182487	35.854939	19.218931	22.854546	-11.856075	-3.520344	16.094694	15.151851	-3.711056	2.385030	5.331638	-35.417316	-31.616703	-11.170198	8.134303	14.330747	-17.792429	-1.385036	5.586145	-2.010466	-0.475711	13.690604	-14.620784	1.131335	1.145272	8.897887	14.377239	11.413460	14.329083	7.231020	-26.507135	1.122883	8.381571	7.641248	-5.794866	-9.566326	-3.564910	4.333428	-12.819124	9.480742	-4.277106	0.643108	-6.863282	15.904946	-11.948037	2.143450	16.074356	-7.564797	-16.562922	0.315284	-1.619911	-3.322984	-18.276876	
-2.585922	38.538811	-0.558745	12.625220	22.106884	35.715355	21.158981	25.618942	-16.153191	-4.050869	23.525673	12.647952	-2.138599	-0.391429	8.261625	-32.973511	-29.228146	-10.985498	9.191084	19.333088	-15.420973	-2.478795	2.670477	-3.933643	1.128509	16.212576	-17.358475	-3.719868	-3.878913	9.779143	20.056519	14.864297	17.890251	6.783353	-26.309444	1.518544	12.582848	9.232492	-4.589374	-8.911352	-6.181739	8.661694	-15.571143	10.754263	-4.981029	-0.072374	-9.395192	17.286438	-12.824755	2.508389	18.748011	-7.935606	-22.558950	2.524152	-0.644897	2.937584	-16.167164	
-2.659629	38.260094	-0.227260	11.901833	22.546898	35.872509	19.998106	23.770658	-17.628824	-4.693766	27.135021	13.197882	0.692032	1.994796	8.150682	-33.179806	-31.580101	-13.417467	9.634665	23.416367	-12.647249	-2.576609	0.867741	-5.603023	1.768909	15.626544	-18.277990	-4.627603	-5.060378	10.186220	20.267221	14.615080	18.757196	7.312049	-25.835505	2.141950	14.186992	9.339965	-3.471342	-8.665693	-7.668181	9.901098	-16.743914	10.533973	-5.019417	-0.008696	-9.931720	17.640881	-14.568143	2.073642	19.247164	-8.346086	-23.850809	3.460165	-0.288014	2.078351	-14.319512	
-2.505073	38.118256	0.068728	9.752723	22.764578	35.239101	19.332489	21.785921	-16.557266	-6.701918	34.142765	7.935872	2.603735	0.965890	13.659073	-31.315514	-33.489643	-15.366865	9.246127	24.537586	-10.334262	-2.963964	0.737210	-5.694871	2.043849	14.645992	-16.848391	-4.246166	-5.326160	8.872689	19.502756	11.365375	17.750240	8.827070	-22.530373	6.071203	18.413507	9.486515	0.925690	-7.836996	-8.061431	10.424890	-18.711708	6.431200	-4.184750	-0.429701	-11.564542	16.517193	-21.925877	0.355778	18.486710	-7.630949	-24.707344	6.023155	-0.016432	0.412905	-14.742337	
-2.549865	38.173862	0.167603	9.548345	22.569613	34.955853	18.517363	20.921650	-16.198002	-7.528013	36.619999	7.114484	1.707558	2.085968	13.377733	-30.847525	-33.015999	-14.483391	10.073279	23.496922	-11.835016	-3.469896	1.042783	-4.799366	1.644215	14.599285	-16.023542	-4.408872	-6.288650	7.363048	20.049166	11.560925	17.536236	7.369503	-22.589310	4.982047	20.601944	11.149143	2.577544	-7.449335	-8.185225	10.301281	-19.149420	5.302415	-3.643401	-1.805913	-17.137402	15.422195	-24.098063	2.374798	18.420040	-7.650858	-25.182449	5.454754	0.096830	-1.290963	-13.495748	
-2.508383	38.260281	0.184182	9.738116	20.953289	33.663933	18.518354	21.856611	-14.788819	-11.045183	39.860310	7.685418	1.306463	0.223347	13.096808	-29.239542	-31.460627	-10.553628	11.580914	21.495758	-14.098370	-3.623108	1.662269	-4.661129	1.212875	15.455578	-15.256974	-4.118965	-6.819413	7.254790	20.698235	9.977874	15.603026	5.659868	-21.511108	2.993670	19.759817	12.455020	2.375210	-7.108367	-9.138485	11.048800	-20.079697	2.454549	-2.782607	-1.235361	-17.683817	15.238211	-25.190754	2.374190	18.245260	-8.048690	-27.345188	4.754899	0.570148	-0.715066	-12.578649	
-2.447866	38.308109	0.175993	9.569919	20.538740	33.400776	17.766678	21.272976	-13.742299	-11.700593	41.251102	8.768667	0.606608	-0.151440	11.878942	-28.804113	-30.920980	-9.235546	12.170741	20.468599	-14.900970	-3.715977	2.078719	-4.748588	1.356754	15.467942	-15.538211	-4.659469	-7.372508	6.631340	21.183907	10.315976	15.772766	2.681021	-23.038052	-1.746560	19.848759	13.941055	3.276296	-7.630169	-10.401057	11.018879	-19.686766	2.178499	-2.296633	-0.773631	-20.907009	15.610457	-24.590578	3.743924	19.381996	-8.165939	-27.924530	4.952590	-0.369526	-2.168992	-13.004341	
-2.356071	38.435478	0.251608	8.034700	21.291067	33.630188	16.962765	18.731009	-11.964206	-14.695060	42.836761	12.556074	-1.655348	-1.431136	8.060665	-27.447731	-31.179680	-8.263627	11.399958	17.960203	-15.463173	-3.381727	3.423867	-4.785826	1.735664	13.502496	-16.535530	-5.026032	-7.488158	6.887206	20.989820	8.863395	13.360204	1.925139	-23.069496	-4.251335	13.014454	7.853508	-3.084669	-7.788194	-11.022044	12.042524	-19.943947	-0.780518	-3.404662	1.101209	-20.947351	16.795753	-23.949547	-0.721924	18.362209	-9.534018	-29.041449	4.608847	0.476087	-2.727406	-13.218101	
-2.354243	38.496021	0.303778	7.698141	21.471447	33.782291	16.406218	17.603264	-11.284462	-15.458576	43.443512	13.626331	-1.977157	-1.653600	7.152246	-26.796921	-31.091681	-8.218409	10.594260	17.261824	-15.198150	-3.134650	3.933446	-4.834137	1.774554	12.929461	-16.615883	-5.652462	-8.160130	6.197729	20.732510	6.571908	10.330711	1.635146	-22.223049	-6.533469	12.306180	7.831450	-2.819598	-8.447008	-11.848329	11.974388	-19.177488	-1.054039	-3.396741	1.607296	-21.389189	16.653461	-23.271715	-1.488462	18.088348	-10.323827	-29.044291	3.941663	0.705240	-3.260387	-13.422638	
-2.282083	38.698402	0.418510	7.289027	21.377235	34.457756	15.051261	15.233815	-8.754668	-16.275291	44.022129	15.139116	-3.084390	-2.124129	5.408731	-25.084232	-30.101000	-7.609802	8.297623	15.579106	-14.716447	-2.388074	5.476634	-5.629780	1.290156	11.630786	-16.742401	-5.928582	-8.071091	5.746548	20.808945	5.275049	8.768246	0.296741	-22.319880	-10.016735	7.539056	3.574672	-7.802720	-8.564463	-11.616332	12.095285	-18.375929	-2.953792	-3.178605	2.137238	-22.165819	15.843107	-20.707142	-1.996441	17.279392	-12.057714	-28.132162	2.619796	1.056800	-3.908834	-14.620147	
